<?xml version="1.0" standalone="no"?>
<!DOCTYPE svg PUBLIC "-//W3C//DTD SVG 20010904//EN"
 "http://www.w3.org/TR/2001/REC-SVG-20010904/DTD/svg10.dtd">
<svg version="1.0" xmlns="http://www.w3.org/2000/svg"
 width="512.000000pt" height="512.000000pt" viewBox="0 0 512.000000 512.000000"
 preserveAspectRatio="xMidYMid meet">
<metadata>
Created by potrace 1.14, written by Peter Selinger 2001-2017
</metadata>
<g transform="translate(0.000000,512.000000) scale(0.100000,-0.100000)"
fill="#000000" stroke="none">
<path d="M0 2560 l0 -2560 2560 0 2560 0 0 2560 0 2560 -2560 0 -2560 0 0
-2560z m2357 1642 c65 -33 88 -74 88 -153 0 -55 -5 -72 -28 -107 -25 -38 -99
-102 -118 -102 -15 0 -40 33 -37 48 3 17 27 31 86 53 45 16 66 59 60 121 -9
85 -62 122 -178 120 -316 -4 -794 -346 -971 -694 -62 -122 -87 -292 -57 -392
17 -57 75 -111 139 -130 65 -20 185 -20 264 -2 33 8 63 12 67 10 23 -14 2 -37
-54 -61 -636 -273 -1047 -653 -1160 -1072 -28 -103 -31 -326 -5 -421 74 -276
272 -433 567 -447 302 -15 602 113 869 372 192 186 336 379 462 619 51 97 74
133 85 129 8 -3 14 -10 14 -16 0 -23 -127 -250 -205 -367 -201 -299 -398 -498
-620 -625 -210 -120 -463 -178 -675 -154 -293 33 -482 178 -567 434 -25 74
-27 93 -27 245 0 181 12 244 74 393 127 306 555 693 953 863 l68 29 -68 11
c-162 28 -248 83 -274 175 -17 60 -14 200 5 282 65 278 334 571 681 745 226
112 452 150 562 94z m842 -1663 c18 -6 38 -24 46 -40 21 -39 19 -125 -4 -198
l-19 -61 56 50 c108 96 206 123 297 81 41 -18 74 -60 146 -185 19 -32 48 -67
64 -77 96 -60 380 21 853 242 57 27 108 46 113 43 26 -15 -5 -38 -148 -107
-461 -222 -754 -289 -920 -211 -42 20 -93 94 -124 179 -27 75 -44 95 -81 95
-58 0 -130 -49 -241 -163 -109 -111 -109 -111 -135 -96 -37 21 -34 43 29 184
34 78 54 138 57 172 4 49 3 52 -21 58 -81 21 -222 -112 -387 -363 -146 -223
-143 -220 -165 -202 -25 21 -14 92 39 253 80 243 117 304 176 295 50 -7 48
-30 -13 -154 -32 -64 -56 -118 -54 -120 2 -3 31 30 63 73 106 141 193 221 272
249 46 16 61 17 101 3z"/>
</g>
</svg>
